<svg xmlns="http://www.w3.org/2000/svg" width="122" height="24" fill="none"><path fill="#FFFFFF" d="M38.208 20.27c-1.7 0-3.14-.34-4.32-1.01-1.18-.67-2.09-1.66-2.71-2.95-.62-1.29-.94-2.87-.94-4.73 0-1.71.31-3.22.92-4.54.62-1.31 1.52-2.33 2.72-3.06 1.2-.73 2.64-1.09 4.32-1.09 1.76 0 3.28.45 4.57 1.34 1.29.9 2.16 2.2 2.6 3.91l-2.35.46c-.3-1.1-.86-2.02-1.67-2.75-.81-.73-1.84-1.09-3.11-1.09-.98 0-1.84.16-2.58.48-.74.32-1.34.79-1.79 1.42-.42.58-.72 1.27-.92 2.09-.2.82-.3 1.76-.3 2.83 0 1.09.1 2.04.3 2.87.2.83.51 1.53.92 2.12.45.64 1.05 1.1 1.8 1.39.75.29 1.67.43 2.76.43 1.62 0 2.84-.46 3.68-1.38.84-.92 1.26-2.28 1.26-4.07l1.03.17h-6v-2.03h7.15v8.9h-1.78l-.29-3.34.46.43a6.01 6.01 0 0 1-1.39 1.75c-.56.48-1.21.84-1.94 1.08-.74.25-1.54.37-2.4.37zm9.382-.58 6.58-16.8h2.3l6.55 16.8h-2.28l-4.49-12c-.08-.19-.16-.38-.23-.58-.07-.19-.14-.39-.2-.6-.1-.27-.19-.54-.28-.8-.09-.26-.17-.51-.25-.73h-.02c-.06.21-.13.42-.2.64-.07.22-.15.44-.23.66-.08.22-.16.45-.24.68-.08.23-.17.48-.26.73l-4.44 12h-2.31zm3.07-5.02.7-1.92h7.9l.7 1.92h-9.3zm17.14 5.02V4.79h-5.59v-1.9h13.37v1.9h-5.59v14.9H67.8zm15.648.58c-1.23 0-2.36-.2-3.4-.61a5.647 5.647 0 0 1-2.52-1.91c-.65-.86-1-1.93-1.04-3.19l2.26-.31c.08 1.36.55 2.4 1.4 3.12.86.72 1.95 1.08 3.28 1.08.86 0 1.62-.11 2.27-.32.65-.22 1.16-.56 1.54-1.03.38-.47.56-1.07.56-1.79 0-.59-.18-1.06-.54-1.42-.36-.35-.8-.61-1.33-.78-.53-.17-1.27-.36-2.23-.56-.16-.03-.32-.07-.49-.11-.17-.04-.34-.08-.52-.11-1.04-.26-1.92-.55-2.65-.88-.73-.33-1.32-.79-1.79-1.39-.46-.6-.7-1.39-.7-2.36 0-1.07.29-1.97.86-2.69.58-.72 1.32-1.25 2.23-1.6.91-.34 1.87-.52 2.88-.52 1.84 0 3.36.43 4.55 1.28 1.19.86 1.88 2.19 2.05 4l-2.23.46c-.06-1.26-.48-2.24-1.25-2.92-.77-.68-1.82-1.02-3.17-1.02-.62 0-1.22.11-1.79.34-.57.22-1.03.55-1.38.98-.35.43-.53.94-.53 1.54 0 .51.17.94.52 1.3.34.35.8.63 1.36.84.56.21 1.24.39 2.04.55.1.02.19.04.28.06.09.02.18.04.28.06.06.02.14.03.22.04.08.01.15.02.22.04 1.14.24 2.08.51 2.84.82.76.3 1.37.77 1.84 1.39.46.62.7 1.46.7 2.5 0 1.23-.31 2.23-.92 3-.62.77-1.42 1.32-2.4 1.64-1.01.31-2.1.48-3.3.48zm10.032-.58V2.89h5.86c1.22 0 2.27.1 3.16.3.89.2 1.63.64 2.23 1.31.6.67.9 1.67.9 3 0 .93-.25 1.73-.74 2.41-.5.68-1.16 1.17-1.99 1.48l-.17-.53c1.23.32 2.13.81 2.7 1.46.57.66.85 1.57.85 2.74 0 1.36-.32 2.38-.96 3.05-.64.67-1.43 1.1-2.38 1.3-.94.19-2.09.29-3.43.29h-6.03v-.01zm5.66-9.5c.93 0 1.68-.05 2.27-.14.58-.1 1.08-.34 1.49-.72.41-.38.61-.99.61-1.82 0-.85-.2-1.47-.61-1.86-.41-.39-.9-.64-1.49-.73-.59-.09-1.33-.14-2.24-.14h-3.53v5.42h3.5v-.01zm.36 7.65c1.06 0 1.89-.04 2.5-.13.61-.09 1.12-.34 1.54-.74.42-.41.62-1.04.62-1.91 0-.93-.23-1.61-.7-2.04-.46-.43-1-.7-1.61-.8-.61-.1-1.35-.16-2.23-.16h-3.98v5.78h3.86zm13.899 1.85v-7.18l-6.02-9.62h2.52l2.83 4.8c.05.1.12.23.23.4.1.17.22.37.35.61.19.34.39.68.59 1.04.2.36.4.71.59 1.04.19-.34.37-.66.54-.96.17-.3.33-.6.49-.89.11-.21.23-.42.35-.62.12-.2.24-.42.37-.62l2.83-4.8h2.54l-6.02 9.62v7.18h-2.19zM21.78 6.87l-1-1.73-7.39 4.26c-.67.38-1.5-.1-1.5-.86V0h-2v8.54c0 .77-.83 1.25-1.5.86L1 5.13 0 6.87l7.39 4.27c.67.38.67 1.34 0 1.73L0 17.13l1 1.73 7.4-4.27c.67-.38 1.5.1 1.5.86V24h2v-8.54c0-.77.83-1.25 1.5-.86l7.39 4.27 1-1.73-7.39-4.27a.996.996 0 0 1 0-1.73l7.38-4.27z"/></svg>